# xmcd
#
# Track frame offsets:
#	150
#	10128
#	23049
#	34755
#	45840
#	65835
#	74571
#	87006
#	98685
#	109230
#	122394
#
# Disc length: 1779 seconds
#
# Revision: 0
# Processed by: cddbd v1.5.1PL0 Copyright (c) Steve Scherf et al.
# Submitted via: EasyCDDAExtractor 5.0.0.0
#
DISCID=8306f10b
DTITLE=JOHNNY CASH - MORE AMERICAN RECORDINGS:AMERICAN 1 OUTTAKES
DYEAR=1900
DGENRE=Country
TTITLE0=What On Earth( Will You Do For Heaven's Sake)
TTITLE1=The Drifter (Alternate Version)
TTITLE2=I Witnessed A Crime (With Billy Gibbons)
TTITLE3=I Witnessed A Crime
TTITLE4=To Beat The Devil
TTITLE5=Friends In California
TTITLE6=The Wonder Of You
TTITLE7=East Virginia Blues
TTITLE8=Go On Blues
TTITLE9=Bad News
TTITLE10=All God's Children Ain't Free
EXTD=
EXTT0=
EXTT1=
EXTT2=
EXTT3=
EXTT4=
EXTT5=
EXTT6=
EXTT7=
EXTT8=
EXTT9=
EXTT10=
PLAYORDER=
